<mxfile host="app.diagrams.net" modified="2023-02-06T09:22:14.495Z" agent="5.0 (X11)" etag="eMafNpmclSenDdBg1FzN" version="20.8.16" type="github">
  <diagram id="C5RBs43oDa-KdzZeNtuy" name="Page-1">
    <mxGraphModel dx="2767" dy="1572" grid="1" gridSize="10" guides="1" tooltips="1" connect="1" arrows="1" fold="1" page="1" pageScale="1" pageWidth="827" pageHeight="1169" math="0" shadow="0">
      <root>
        <mxCell id="WIyWlLk6GJQsqaUBKTNV-0" />
        <mxCell id="WIyWlLk6GJQsqaUBKTNV-1" parent="WIyWlLk6GJQsqaUBKTNV-0" />
        <mxCell id="dKufIB2NEosUNNGaxdtm-8" value="" style="rounded=1;whiteSpace=wrap;html=1;fontSize=15;fillColor=#d5e8d4;strokeColor=#82b366;" parent="WIyWlLk6GJQsqaUBKTNV-1" vertex="1">
          <mxGeometry x="515" y="610" width="660" height="650" as="geometry" />
        </mxCell>
        <mxCell id="CeiemYDGyUlbSWjwOKQ2-53" value="" style="rounded=1;whiteSpace=wrap;html=1;fontSize=12;fillColor=#fad7ac;strokeColor=#b46504;" parent="WIyWlLk6GJQsqaUBKTNV-1" vertex="1">
          <mxGeometry x="-1440" y="-470" width="600" height="780" as="geometry" />
        </mxCell>
        <mxCell id="CeiemYDGyUlbSWjwOKQ2-31" value="" style="rounded=1;whiteSpace=wrap;html=1;fontSize=12;fillColor=#f5f5f5;strokeColor=#666666;fontColor=#333333;" parent="WIyWlLk6GJQsqaUBKTNV-1" vertex="1">
          <mxGeometry x="-490" y="-400" width="890" height="540" as="geometry" />
        </mxCell>
        <mxCell id="CeiemYDGyUlbSWjwOKQ2-30" value="" style="rounded=1;whiteSpace=wrap;html=1;fontSize=12;fillColor=#e1d5e7;strokeColor=#9673a6;" parent="WIyWlLk6GJQsqaUBKTNV-1" vertex="1">
          <mxGeometry x="2930" y="-420" width="450" height="620" as="geometry" />
        </mxCell>
        <mxCell id="mc2_c9GGt54Fjs0nvVG7-83" value="" style="rounded=1;whiteSpace=wrap;html=1;fontSize=12;fillColor=#ffe6cc;strokeColor=#d79b00;" parent="WIyWlLk6GJQsqaUBKTNV-1" vertex="1">
          <mxGeometry x="1950" y="-400" width="640" height="760" as="geometry" />
        </mxCell>
        <mxCell id="mc2_c9GGt54Fjs0nvVG7-76" value="" style="rounded=1;whiteSpace=wrap;html=1;fontSize=12;fillColor=#d5e8d4;strokeColor=#82b366;" parent="WIyWlLk6GJQsqaUBKTNV-1" vertex="1">
          <mxGeometry x="490" y="-405" width="730" height="990" as="geometry" />
        </mxCell>
        <mxCell id="QMAzLd_gtUf6sZtIvfxd-20" value="&lt;b&gt;&lt;font style=&quot;font-size: 16px;&quot;&gt;Iscrizione utenti &lt;/font&gt;&lt;/b&gt;&lt;font style=&quot;font-size: 10px;&quot;&gt;ACY_SINGLE&lt;/font&gt;&lt;b&gt;&lt;font style=&quot;font-size: 16px;&quot;&gt;&lt;br&gt;&lt;/font&gt;&lt;/b&gt;" style="text;html=1;strokeColor=none;fillColor=none;align=center;verticalAlign=middle;whiteSpace=wrap;rounded=0;fontSize=12;" parent="WIyWlLk6GJQsqaUBKTNV-1" vertex="1">
          <mxGeometry x="700" y="-375" width="290" height="70" as="geometry" />
        </mxCell>
        <mxCell id="mc2_c9GGt54Fjs0nvVG7-6" value="Onboarding page" style="ellipse;whiteSpace=wrap;html=1;aspect=fixed;" parent="WIyWlLk6GJQsqaUBKTNV-1" vertex="1">
          <mxGeometry x="789" y="-295" width="110" height="110" as="geometry" />
        </mxCell>
        <mxCell id="mc2_c9GGt54Fjs0nvVG7-63" style="edgeStyle=orthogonalEdgeStyle;rounded=0;orthogonalLoop=1;jettySize=auto;html=1;exitX=0.5;exitY=1;exitDx=0;exitDy=0;entryX=0.5;entryY=0;entryDx=0;entryDy=0;fontSize=12;" parent="WIyWlLk6GJQsqaUBKTNV-1" source="mc2_c9GGt54Fjs0nvVG7-7" target="mc2_c9GGt54Fjs0nvVG7-61" edge="1">
          <mxGeometry relative="1" as="geometry" />
        </mxCell>
        <mxCell id="mc2_c9GGt54Fjs0nvVG7-7" value="Form iscrizione" style="rounded=1;whiteSpace=wrap;html=1;" parent="WIyWlLk6GJQsqaUBKTNV-1" vertex="1">
          <mxGeometry x="784" y="-10" width="120" height="60" as="geometry" />
        </mxCell>
        <mxCell id="mc2_c9GGt54Fjs0nvVG7-12" value="" style="edgeStyle=orthogonalEdgeStyle;rounded=0;orthogonalLoop=1;jettySize=auto;html=1;exitX=0.5;exitY=1;exitDx=0;exitDy=0;entryX=0.5;entryY=0;entryDx=0;entryDy=0;" parent="WIyWlLk6GJQsqaUBKTNV-1" source="mc2_c9GGt54Fjs0nvVG7-6" target="ACG_DsYqHiAKfRYJmFHR-3" edge="1">
          <mxGeometry relative="1" as="geometry">
            <mxPoint x="844" y="-35" as="sourcePoint" />
            <mxPoint x="845" y="-90" as="targetPoint" />
          </mxGeometry>
        </mxCell>
        <mxCell id="mc2_c9GGt54Fjs0nvVG7-42" value="Si" style="edgeStyle=orthogonalEdgeStyle;rounded=0;orthogonalLoop=1;jettySize=auto;html=1;exitX=1;exitY=0.5;exitDx=0;exitDy=0;entryX=0.5;entryY=0;entryDx=0;entryDy=0;fontSize=16;entryPerimeter=0;" parent="WIyWlLk6GJQsqaUBKTNV-1" source="mc2_c9GGt54Fjs0nvVG7-38" target="ToMslZOrTW9pG5beW0yi-8" edge="1">
          <mxGeometry relative="1" as="geometry">
            <mxPoint x="2462.5" y="194.99999999999977" as="targetPoint" />
          </mxGeometry>
        </mxCell>
        <mxCell id="mc2_c9GGt54Fjs0nvVG7-46" value="No" style="edgeStyle=orthogonalEdgeStyle;rounded=0;orthogonalLoop=1;jettySize=auto;html=1;exitX=0;exitY=0.5;exitDx=0;exitDy=0;entryX=0.5;entryY=0;entryDx=0;entryDy=0;fontSize=12;" parent="WIyWlLk6GJQsqaUBKTNV-1" source="mc2_c9GGt54Fjs0nvVG7-38" target="CeiemYDGyUlbSWjwOKQ2-34" edge="1">
          <mxGeometry relative="1" as="geometry">
            <mxPoint x="2186" y="220" as="targetPoint" />
          </mxGeometry>
        </mxCell>
        <mxCell id="mc2_c9GGt54Fjs0nvVG7-38" value="Risposte ai survey valide" style="rhombus;whiteSpace=wrap;html=1;" parent="WIyWlLk6GJQsqaUBKTNV-1" vertex="1">
          <mxGeometry x="2266" y="115" width="120" height="110" as="geometry" />
        </mxCell>
        <mxCell id="mc2_c9GGt54Fjs0nvVG7-60" value="" style="group" parent="WIyWlLk6GJQsqaUBKTNV-1" vertex="1" connectable="0">
          <mxGeometry x="1300" y="-400" width="540" height="770" as="geometry" />
        </mxCell>
        <mxCell id="mc2_c9GGt54Fjs0nvVG7-57" value="" style="rounded=1;whiteSpace=wrap;html=1;fontSize=12;fillColor=#dae8fc;strokeColor=#6c8ebf;" parent="mc2_c9GGt54Fjs0nvVG7-60" vertex="1">
          <mxGeometry width="540" height="770" as="geometry" />
        </mxCell>
        <mxCell id="mc2_c9GGt54Fjs0nvVG7-25" value="SING IN" style="ellipse;whiteSpace=wrap;html=1;aspect=fixed;" parent="mc2_c9GGt54Fjs0nvVG7-60" vertex="1">
          <mxGeometry x="239.5" y="90" width="70" height="70" as="geometry" />
        </mxCell>
        <mxCell id="mc2_c9GGt54Fjs0nvVG7-40" value="&lt;b&gt;&lt;font style=&quot;font-size: 16px;&quot;&gt;LogIn - SignIn&lt;/font&gt;&lt;/b&gt; SMARTBI" style="text;html=1;strokeColor=none;fillColor=none;align=center;verticalAlign=middle;whiteSpace=wrap;rounded=0;" parent="mc2_c9GGt54Fjs0nvVG7-60" vertex="1">
          <mxGeometry x="183.5" y="40" width="176" height="30" as="geometry" />
        </mxCell>
        <mxCell id="mc2_c9GGt54Fjs0nvVG7-54" value="No" style="edgeStyle=orthogonalEdgeStyle;rounded=0;orthogonalLoop=1;jettySize=auto;html=1;entryX=0.5;entryY=0;entryDx=0;entryDy=0;fontSize=12;" parent="mc2_c9GGt54Fjs0nvVG7-60" source="mc2_c9GGt54Fjs0nvVG7-51" target="ToMslZOrTW9pG5beW0yi-12" edge="1">
          <mxGeometry relative="1" as="geometry">
            <mxPoint x="159.5" y="350.0000000000002" as="targetPoint" />
          </mxGeometry>
        </mxCell>
        <mxCell id="ACG_DsYqHiAKfRYJmFHR-9" value="Si" style="edgeStyle=orthogonalEdgeStyle;rounded=0;orthogonalLoop=1;jettySize=auto;html=1;exitX=1;exitY=0.5;exitDx=0;exitDy=0;entryX=0.5;entryY=0;entryDx=0;entryDy=0;fontSize=10;" parent="mc2_c9GGt54Fjs0nvVG7-60" source="mc2_c9GGt54Fjs0nvVG7-51" target="mc2_c9GGt54Fjs0nvVG7-55" edge="1">
          <mxGeometry relative="1" as="geometry">
            <mxPoint x="406" y="420" as="targetPoint" />
          </mxGeometry>
        </mxCell>
        <mxCell id="mc2_c9GGt54Fjs0nvVG7-51" value="Credenziali valide" style="rhombus;whiteSpace=wrap;html=1;" parent="mc2_c9GGt54Fjs0nvVG7-60" vertex="1">
          <mxGeometry x="234.5" y="345" width="80" height="80" as="geometry" />
        </mxCell>
        <mxCell id="mc2_c9GGt54Fjs0nvVG7-52" value="" style="edgeStyle=orthogonalEdgeStyle;rounded=0;orthogonalLoop=1;jettySize=auto;html=1;fontSize=12;entryX=0.5;entryY=0;entryDx=0;entryDy=0;" parent="mc2_c9GGt54Fjs0nvVG7-60" source="mc2_c9GGt54Fjs0nvVG7-25" target="ACG_DsYqHiAKfRYJmFHR-7" edge="1">
          <mxGeometry relative="1" as="geometry" />
        </mxCell>
        <mxCell id="mc2_c9GGt54Fjs0nvVG7-55" value="Associazione a ruolo e progetti" style="shape=step;perimeter=stepPerimeter;whiteSpace=wrap;html=1;fixedSize=1;" parent="mc2_c9GGt54Fjs0nvVG7-60" vertex="1">
          <mxGeometry x="346" y="460" width="120" height="80" as="geometry" />
        </mxCell>
        <mxCell id="mc2_c9GGt54Fjs0nvVG7-58" value="LANDING PAGE" style="ellipse;whiteSpace=wrap;html=1;" parent="mc2_c9GGt54Fjs0nvVG7-60" vertex="1">
          <mxGeometry x="366" y="600" width="80" height="80" as="geometry" />
        </mxCell>
        <mxCell id="mc2_c9GGt54Fjs0nvVG7-59" value="" style="edgeStyle=orthogonalEdgeStyle;rounded=0;orthogonalLoop=1;jettySize=auto;html=1;fontSize=12;" parent="mc2_c9GGt54Fjs0nvVG7-60" source="mc2_c9GGt54Fjs0nvVG7-55" target="mc2_c9GGt54Fjs0nvVG7-58" edge="1">
          <mxGeometry relative="1" as="geometry" />
        </mxCell>
        <mxCell id="CeiemYDGyUlbSWjwOKQ2-32" value="Rimando a registrazione" style="ellipse;whiteSpace=wrap;html=1;aspect=fixed;fontSize=12;" parent="mc2_c9GGt54Fjs0nvVG7-60" vertex="1">
          <mxGeometry x="102" y="560" width="80" height="80" as="geometry" />
        </mxCell>
        <mxCell id="ACG_DsYqHiAKfRYJmFHR-8" style="edgeStyle=orthogonalEdgeStyle;rounded=0;orthogonalLoop=1;jettySize=auto;html=1;exitX=0.5;exitY=1;exitDx=0;exitDy=0;entryX=0.5;entryY=0;entryDx=0;entryDy=0;fontSize=10;" parent="mc2_c9GGt54Fjs0nvVG7-60" source="ACG_DsYqHiAKfRYJmFHR-7" target="mc2_c9GGt54Fjs0nvVG7-51" edge="1">
          <mxGeometry relative="1" as="geometry" />
        </mxCell>
        <mxCell id="ACG_DsYqHiAKfRYJmFHR-7" value="Credenziali (email, password)" style="shape=parallelogram;perimeter=parallelogramPerimeter;whiteSpace=wrap;html=1;fixedSize=1;fontSize=10;" parent="mc2_c9GGt54Fjs0nvVG7-60" vertex="1">
          <mxGeometry x="214.5" y="220" width="120" height="60" as="geometry" />
        </mxCell>
        <mxCell id="ToMslZOrTW9pG5beW0yi-13" style="edgeStyle=orthogonalEdgeStyle;rounded=0;orthogonalLoop=1;jettySize=auto;html=1;exitX=0.5;exitY=1;exitDx=0;exitDy=0;entryX=0.5;entryY=0;entryDx=0;entryDy=0;fontSize=10;" edge="1" parent="mc2_c9GGt54Fjs0nvVG7-60" source="ToMslZOrTW9pG5beW0yi-12" target="CeiemYDGyUlbSWjwOKQ2-32">
          <mxGeometry relative="1" as="geometry" />
        </mxCell>
        <mxCell id="ToMslZOrTW9pG5beW0yi-12" value="Validazione respinta" style="rounded=1;whiteSpace=wrap;html=1;fontSize=10;" vertex="1" parent="mc2_c9GGt54Fjs0nvVG7-60">
          <mxGeometry x="69.5" y="425" width="145" height="70" as="geometry" />
        </mxCell>
        <mxCell id="mc2_c9GGt54Fjs0nvVG7-71" style="edgeStyle=orthogonalEdgeStyle;rounded=0;orthogonalLoop=1;jettySize=auto;html=1;entryX=0.5;entryY=0;entryDx=0;entryDy=0;fontSize=12;" parent="WIyWlLk6GJQsqaUBKTNV-1" source="mc2_c9GGt54Fjs0nvVG7-61" target="mc2_c9GGt54Fjs0nvVG7-70" edge="1">
          <mxGeometry relative="1" as="geometry" />
        </mxCell>
        <mxCell id="mc2_c9GGt54Fjs0nvVG7-61" value="email, password, anno di nascita, città" style="shape=parallelogram;perimeter=parallelogramPerimeter;whiteSpace=wrap;html=1;fixedSize=1;fontSize=12;" parent="WIyWlLk6GJQsqaUBKTNV-1" vertex="1">
          <mxGeometry x="760" y="140" width="170" height="60" as="geometry" />
        </mxCell>
        <mxCell id="mc2_c9GGt54Fjs0nvVG7-78" style="edgeStyle=orthogonalEdgeStyle;rounded=0;orthogonalLoop=1;jettySize=auto;html=1;exitX=1;exitY=0.5;exitDx=0;exitDy=0;entryX=0.5;entryY=0;entryDx=0;entryDy=0;fontSize=12;entryPerimeter=0;" parent="WIyWlLk6GJQsqaUBKTNV-1" source="mc2_c9GGt54Fjs0nvVG7-70" target="ToMslZOrTW9pG5beW0yi-0" edge="1">
          <mxGeometry relative="1" as="geometry">
            <mxPoint x="1032.5" y="389.9999999999998" as="targetPoint" />
          </mxGeometry>
        </mxCell>
        <mxCell id="ACG_DsYqHiAKfRYJmFHR-5" value="Validata" style="edgeLabel;html=1;align=center;verticalAlign=middle;resizable=0;points=[];" parent="mc2_c9GGt54Fjs0nvVG7-78" vertex="1" connectable="0">
          <mxGeometry x="-0.561" y="2" relative="1" as="geometry">
            <mxPoint as="offset" />
          </mxGeometry>
        </mxCell>
        <mxCell id="mc2_c9GGt54Fjs0nvVG7-80" style="edgeStyle=orthogonalEdgeStyle;rounded=0;orthogonalLoop=1;jettySize=auto;html=1;exitX=0;exitY=0.5;exitDx=0;exitDy=0;entryX=0.5;entryY=0;entryDx=0;entryDy=0;fontSize=12;" parent="WIyWlLk6GJQsqaUBKTNV-1" source="mc2_c9GGt54Fjs0nvVG7-70" target="mc2_c9GGt54Fjs0nvVG7-79" edge="1">
          <mxGeometry relative="1" as="geometry" />
        </mxCell>
        <mxCell id="ACG_DsYqHiAKfRYJmFHR-6" value="Non validata" style="edgeLabel;html=1;align=center;verticalAlign=middle;resizable=0;points=[];" parent="mc2_c9GGt54Fjs0nvVG7-80" vertex="1" connectable="0">
          <mxGeometry x="0.0938" y="-1" relative="1" as="geometry">
            <mxPoint as="offset" />
          </mxGeometry>
        </mxCell>
        <mxCell id="mc2_c9GGt54Fjs0nvVG7-70" value="Validazione email" style="rhombus;whiteSpace=wrap;html=1;fontSize=12;" parent="WIyWlLk6GJQsqaUBKTNV-1" vertex="1">
          <mxGeometry x="773" y="260" width="142" height="130" as="geometry" />
        </mxCell>
        <mxCell id="mc2_c9GGt54Fjs0nvVG7-79" value="Dati non salvati" style="ellipse;whiteSpace=wrap;html=1;aspect=fixed;fontSize=12;" parent="WIyWlLk6GJQsqaUBKTNV-1" vertex="1">
          <mxGeometry x="627.5" y="390" width="80" height="80" as="geometry" />
        </mxCell>
        <mxCell id="mc2_c9GGt54Fjs0nvVG7-81" value="&lt;b&gt;&lt;font style=&quot;font-size: 16px;&quot;&gt;Surveys&lt;/font&gt;&lt;/b&gt;" style="text;html=1;strokeColor=none;fillColor=none;align=center;verticalAlign=middle;whiteSpace=wrap;rounded=0;fontSize=12;" parent="WIyWlLk6GJQsqaUBKTNV-1" vertex="1">
          <mxGeometry x="2166" y="-360" width="60" height="10" as="geometry" />
        </mxCell>
        <mxCell id="CeiemYDGyUlbSWjwOKQ2-0" value="&lt;b&gt;&lt;font style=&quot;font-size: 16px;&quot;&gt;Visualizzazione dati come utilizzatore &lt;/font&gt;&lt;/b&gt;" style="text;html=1;strokeColor=none;fillColor=none;align=center;verticalAlign=middle;whiteSpace=wrap;rounded=0;" parent="WIyWlLk6GJQsqaUBKTNV-1" vertex="1">
          <mxGeometry x="-260" y="-380" width="421" height="80" as="geometry" />
        </mxCell>
        <mxCell id="CeiemYDGyUlbSWjwOKQ2-7" style="edgeStyle=orthogonalEdgeStyle;rounded=0;orthogonalLoop=1;jettySize=auto;html=1;exitX=0.5;exitY=1;exitDx=0;exitDy=0;entryX=0.5;entryY=0;entryDx=0;entryDy=0;fontSize=12;" parent="WIyWlLk6GJQsqaUBKTNV-1" source="CeiemYDGyUlbSWjwOKQ2-1" target="CeiemYDGyUlbSWjwOKQ2-6" edge="1">
          <mxGeometry relative="1" as="geometry" />
        </mxCell>
        <mxCell id="CeiemYDGyUlbSWjwOKQ2-1" value="&lt;font style=&quot;font-size: 11px;&quot;&gt;&lt;font style=&quot;font-size: 12px;&quot;&gt;Visualizzazione dati device come utilizzatore&lt;/font&gt;&lt;br&gt;&lt;/font&gt;" style="ellipse;whiteSpace=wrap;html=1;aspect=fixed;fontSize=16;" parent="WIyWlLk6GJQsqaUBKTNV-1" vertex="1">
          <mxGeometry x="-100" y="-320" width="100" height="100" as="geometry" />
        </mxCell>
        <mxCell id="CeiemYDGyUlbSWjwOKQ2-17" value="No" style="edgeStyle=orthogonalEdgeStyle;rounded=0;orthogonalLoop=1;jettySize=auto;html=1;exitX=0;exitY=0.5;exitDx=0;exitDy=0;entryX=0.5;entryY=0;entryDx=0;entryDy=0;fontSize=12;" parent="WIyWlLk6GJQsqaUBKTNV-1" source="CeiemYDGyUlbSWjwOKQ2-2" target="CeiemYDGyUlbSWjwOKQ2-16" edge="1">
          <mxGeometry relative="1" as="geometry" />
        </mxCell>
        <mxCell id="CeiemYDGyUlbSWjwOKQ2-19" value="Si" style="edgeStyle=orthogonalEdgeStyle;rounded=0;orthogonalLoop=1;jettySize=auto;html=1;exitX=1;exitY=0.5;exitDx=0;exitDy=0;entryX=0.5;entryY=0;entryDx=0;entryDy=0;fontSize=12;" parent="WIyWlLk6GJQsqaUBKTNV-1" source="CeiemYDGyUlbSWjwOKQ2-2" target="CeiemYDGyUlbSWjwOKQ2-18" edge="1">
          <mxGeometry relative="1" as="geometry" />
        </mxCell>
        <mxCell id="CeiemYDGyUlbSWjwOKQ2-2" value="Log in piattaforma" style="rhombus;whiteSpace=wrap;html=1;fontSize=12;" parent="WIyWlLk6GJQsqaUBKTNV-1" vertex="1">
          <mxGeometry x="115" y="-110" width="80" height="80" as="geometry" />
        </mxCell>
        <mxCell id="CeiemYDGyUlbSWjwOKQ2-11" value="No" style="edgeStyle=orthogonalEdgeStyle;rounded=0;orthogonalLoop=1;jettySize=auto;html=1;exitX=0;exitY=0.5;exitDx=0;exitDy=0;entryX=0.5;entryY=0;entryDx=0;entryDy=0;fontSize=12;" parent="WIyWlLk6GJQsqaUBKTNV-1" source="CeiemYDGyUlbSWjwOKQ2-3" target="CeiemYDGyUlbSWjwOKQ2-15" edge="1">
          <mxGeometry relative="1" as="geometry">
            <mxPoint x="-335" y="-30" as="targetPoint" />
          </mxGeometry>
        </mxCell>
        <mxCell id="CeiemYDGyUlbSWjwOKQ2-13" value="Si" style="edgeStyle=orthogonalEdgeStyle;rounded=0;orthogonalLoop=1;jettySize=auto;html=1;exitX=1;exitY=0.5;exitDx=0;exitDy=0;entryX=0.5;entryY=0;entryDx=0;entryDy=0;fontSize=12;" parent="WIyWlLk6GJQsqaUBKTNV-1" source="CeiemYDGyUlbSWjwOKQ2-3" target="CeiemYDGyUlbSWjwOKQ2-14" edge="1">
          <mxGeometry relative="1" as="geometry">
            <mxPoint x="-116.5" y="-30" as="targetPoint" />
          </mxGeometry>
        </mxCell>
        <mxCell id="CeiemYDGyUlbSWjwOKQ2-3" value="Log in App" style="rhombus;whiteSpace=wrap;html=1;fontSize=12;" parent="WIyWlLk6GJQsqaUBKTNV-1" vertex="1">
          <mxGeometry x="-260" y="-110" width="80" height="80" as="geometry" />
        </mxCell>
        <mxCell id="CeiemYDGyUlbSWjwOKQ2-8" style="edgeStyle=orthogonalEdgeStyle;rounded=0;orthogonalLoop=1;jettySize=auto;html=1;entryX=0.5;entryY=0;entryDx=0;entryDy=0;fontSize=12;" parent="WIyWlLk6GJQsqaUBKTNV-1" source="CeiemYDGyUlbSWjwOKQ2-6" target="CeiemYDGyUlbSWjwOKQ2-2" edge="1">
          <mxGeometry relative="1" as="geometry" />
        </mxCell>
        <mxCell id="CeiemYDGyUlbSWjwOKQ2-9" style="edgeStyle=orthogonalEdgeStyle;rounded=0;orthogonalLoop=1;jettySize=auto;html=1;exitX=0;exitY=0.5;exitDx=0;exitDy=0;entryX=0.5;entryY=0;entryDx=0;entryDy=0;fontSize=12;" parent="WIyWlLk6GJQsqaUBKTNV-1" source="CeiemYDGyUlbSWjwOKQ2-6" target="CeiemYDGyUlbSWjwOKQ2-3" edge="1">
          <mxGeometry relative="1" as="geometry" />
        </mxCell>
        <mxCell id="CeiemYDGyUlbSWjwOKQ2-6" value="Username" style="shape=parallelogram;perimeter=parallelogramPerimeter;whiteSpace=wrap;html=1;fixedSize=1;fontSize=12;" parent="WIyWlLk6GJQsqaUBKTNV-1" vertex="1">
          <mxGeometry x="-105" y="-170" width="110" height="50" as="geometry" />
        </mxCell>
        <mxCell id="CeiemYDGyUlbSWjwOKQ2-14" value="Landing page" style="ellipse;whiteSpace=wrap;html=1;aspect=fixed;fontSize=12;" parent="WIyWlLk6GJQsqaUBKTNV-1" vertex="1">
          <mxGeometry x="-152" y="-40" width="80" height="80" as="geometry" />
        </mxCell>
        <mxCell id="CeiemYDGyUlbSWjwOKQ2-15" value="Errore: &quot;Username non esiste&quot;" style="ellipse;whiteSpace=wrap;html=1;aspect=fixed;fontSize=12;" parent="WIyWlLk6GJQsqaUBKTNV-1" vertex="1">
          <mxGeometry x="-380" y="-40" width="80" height="80" as="geometry" />
        </mxCell>
        <mxCell id="CeiemYDGyUlbSWjwOKQ2-16" value="&lt;div&gt;Errore: &quot;Username non esiste&quot;&lt;/div&gt;" style="ellipse;whiteSpace=wrap;html=1;aspect=fixed;fontSize=12;" parent="WIyWlLk6GJQsqaUBKTNV-1" vertex="1">
          <mxGeometry x="5" y="-40" width="80" height="80" as="geometry" />
        </mxCell>
        <mxCell id="CeiemYDGyUlbSWjwOKQ2-18" value="Experiments landing page" style="ellipse;whiteSpace=wrap;html=1;aspect=fixed;fontSize=12;" parent="WIyWlLk6GJQsqaUBKTNV-1" vertex="1">
          <mxGeometry x="220" y="-40" width="80" height="80" as="geometry" />
        </mxCell>
        <mxCell id="CeiemYDGyUlbSWjwOKQ2-20" value="&lt;b&gt;&lt;font style=&quot;font-size: 16px;&quot;&gt;Register &lt;/font&gt;&lt;/b&gt;" style="text;html=1;strokeColor=none;fillColor=none;align=center;verticalAlign=middle;whiteSpace=wrap;rounded=0;fontSize=12;" parent="WIyWlLk6GJQsqaUBKTNV-1" vertex="1">
          <mxGeometry x="3087.5" y="-365" width="139" height="45" as="geometry" />
        </mxCell>
        <mxCell id="CeiemYDGyUlbSWjwOKQ2-23" style="edgeStyle=orthogonalEdgeStyle;rounded=0;orthogonalLoop=1;jettySize=auto;html=1;exitX=0.5;exitY=1;exitDx=0;exitDy=0;entryX=0.5;entryY=0;entryDx=0;entryDy=0;fontSize=12;" parent="WIyWlLk6GJQsqaUBKTNV-1" source="CeiemYDGyUlbSWjwOKQ2-21" target="CeiemYDGyUlbSWjwOKQ2-22" edge="1">
          <mxGeometry relative="1" as="geometry" />
        </mxCell>
        <mxCell id="CeiemYDGyUlbSWjwOKQ2-21" value="&lt;font style=&quot;font-size: 12px;&quot;&gt;Registrazione&lt;/font&gt;" style="ellipse;whiteSpace=wrap;html=1;aspect=fixed;fontSize=16;" parent="WIyWlLk6GJQsqaUBKTNV-1" vertex="1">
          <mxGeometry x="3107.5" y="-295" width="95" height="95" as="geometry" />
        </mxCell>
        <mxCell id="CeiemYDGyUlbSWjwOKQ2-25" style="edgeStyle=orthogonalEdgeStyle;rounded=0;orthogonalLoop=1;jettySize=auto;html=1;exitX=0.5;exitY=1;exitDx=0;exitDy=0;fontSize=12;" parent="WIyWlLk6GJQsqaUBKTNV-1" source="CeiemYDGyUlbSWjwOKQ2-22" target="CeiemYDGyUlbSWjwOKQ2-24" edge="1">
          <mxGeometry relative="1" as="geometry" />
        </mxCell>
        <mxCell id="CeiemYDGyUlbSWjwOKQ2-22" value="Descrizione, età..." style="shape=parallelogram;perimeter=parallelogramPerimeter;whiteSpace=wrap;html=1;fixedSize=1;fontSize=12;" parent="WIyWlLk6GJQsqaUBKTNV-1" vertex="1">
          <mxGeometry x="3095" y="-140" width="120" height="60" as="geometry" />
        </mxCell>
        <mxCell id="CeiemYDGyUlbSWjwOKQ2-27" value="No" style="edgeStyle=orthogonalEdgeStyle;rounded=0;orthogonalLoop=1;jettySize=auto;html=1;exitX=0;exitY=0.5;exitDx=0;exitDy=0;entryX=0.5;entryY=0;entryDx=0;entryDy=0;fontSize=12;" parent="WIyWlLk6GJQsqaUBKTNV-1" source="CeiemYDGyUlbSWjwOKQ2-24" target="CeiemYDGyUlbSWjwOKQ2-26" edge="1">
          <mxGeometry relative="1" as="geometry" />
        </mxCell>
        <mxCell id="CeiemYDGyUlbSWjwOKQ2-29" value="Si" style="edgeStyle=orthogonalEdgeStyle;rounded=0;orthogonalLoop=1;jettySize=auto;html=1;exitX=1;exitY=0.5;exitDx=0;exitDy=0;entryX=0.5;entryY=0;entryDx=0;entryDy=0;fontSize=12;" parent="WIyWlLk6GJQsqaUBKTNV-1" source="CeiemYDGyUlbSWjwOKQ2-24" target="CeiemYDGyUlbSWjwOKQ2-28" edge="1">
          <mxGeometry relative="1" as="geometry" />
        </mxCell>
        <mxCell id="CeiemYDGyUlbSWjwOKQ2-24" value="Validazione manuale" style="rhombus;whiteSpace=wrap;html=1;fontSize=12;" parent="WIyWlLk6GJQsqaUBKTNV-1" vertex="1">
          <mxGeometry x="3110" y="-30" width="90" height="90" as="geometry" />
        </mxCell>
        <mxCell id="CeiemYDGyUlbSWjwOKQ2-26" value="Richiesta respinta" style="ellipse;whiteSpace=wrap;html=1;aspect=fixed;fontSize=12;" parent="WIyWlLk6GJQsqaUBKTNV-1" vertex="1">
          <mxGeometry x="3007.5" y="50" width="80" height="80" as="geometry" />
        </mxCell>
        <mxCell id="CeiemYDGyUlbSWjwOKQ2-28" value="Accesso garantito" style="ellipse;whiteSpace=wrap;html=1;aspect=fixed;fontSize=12;" parent="WIyWlLk6GJQsqaUBKTNV-1" vertex="1">
          <mxGeometry x="3226.5" y="50" width="80" height="80" as="geometry" />
        </mxCell>
        <mxCell id="CeiemYDGyUlbSWjwOKQ2-34" value="&quot;Per favore rirpova&quot;" style="ellipse;whiteSpace=wrap;html=1;aspect=fixed;fontSize=12;" parent="WIyWlLk6GJQsqaUBKTNV-1" vertex="1">
          <mxGeometry x="2130" y="200" width="80" height="80" as="geometry" />
        </mxCell>
        <mxCell id="CeiemYDGyUlbSWjwOKQ2-36" value="&lt;b&gt;&lt;font style=&quot;font-size: 16px;&quot;&gt;Security&lt;/font&gt;&lt;/b&gt;" style="text;html=1;strokeColor=none;fillColor=none;align=center;verticalAlign=middle;whiteSpace=wrap;rounded=0;fontSize=12;" parent="WIyWlLk6GJQsqaUBKTNV-1" vertex="1">
          <mxGeometry x="-1180" y="-420" width="60" height="30" as="geometry" />
        </mxCell>
        <mxCell id="CeiemYDGyUlbSWjwOKQ2-39" style="edgeStyle=orthogonalEdgeStyle;rounded=0;orthogonalLoop=1;jettySize=auto;html=1;exitX=0.5;exitY=1;exitDx=0;exitDy=0;entryX=0.5;entryY=0;entryDx=0;entryDy=0;fontSize=12;" parent="WIyWlLk6GJQsqaUBKTNV-1" source="CeiemYDGyUlbSWjwOKQ2-37" target="CeiemYDGyUlbSWjwOKQ2-56" edge="1">
          <mxGeometry relative="1" as="geometry">
            <mxPoint x="-1160" y="-132.5" as="targetPoint" />
          </mxGeometry>
        </mxCell>
        <mxCell id="CeiemYDGyUlbSWjwOKQ2-37" value="&lt;div&gt;&lt;font style=&quot;font-size: 12px;&quot;&gt;Accesso microserizio&lt;br&gt;&lt;/font&gt;&lt;/div&gt;" style="ellipse;whiteSpace=wrap;html=1;aspect=fixed;fontSize=16;" parent="WIyWlLk6GJQsqaUBKTNV-1" vertex="1">
          <mxGeometry x="-1200" y="-340" width="80" height="80" as="geometry" />
        </mxCell>
        <mxCell id="CeiemYDGyUlbSWjwOKQ2-42" value="" style="edgeStyle=orthogonalEdgeStyle;rounded=0;orthogonalLoop=1;jettySize=auto;html=1;exitX=0.5;exitY=1;exitDx=0;exitDy=0;entryX=0.5;entryY=0;entryDx=0;entryDy=0;fontSize=12;" parent="WIyWlLk6GJQsqaUBKTNV-1" source="CeiemYDGyUlbSWjwOKQ2-56" target="CeiemYDGyUlbSWjwOKQ2-58" edge="1">
          <mxGeometry relative="1" as="geometry">
            <mxPoint x="-1160" y="-72.5" as="sourcePoint" />
          </mxGeometry>
        </mxCell>
        <mxCell id="CeiemYDGyUlbSWjwOKQ2-46" value="Si" style="edgeStyle=orthogonalEdgeStyle;rounded=0;orthogonalLoop=1;jettySize=auto;html=1;exitX=1;exitY=0.5;exitDx=0;exitDy=0;entryX=0.5;entryY=0;entryDx=0;entryDy=0;fontSize=12;" parent="WIyWlLk6GJQsqaUBKTNV-1" source="CeiemYDGyUlbSWjwOKQ2-58" target="CeiemYDGyUlbSWjwOKQ2-51" edge="1">
          <mxGeometry relative="1" as="geometry">
            <mxPoint x="-1120" y="267.5" as="sourcePoint" />
            <mxPoint x="-980" y="87.49999999999977" as="targetPoint" />
          </mxGeometry>
        </mxCell>
        <mxCell id="CeiemYDGyUlbSWjwOKQ2-50" style="edgeStyle=orthogonalEdgeStyle;rounded=0;orthogonalLoop=1;jettySize=auto;html=1;exitX=0.5;exitY=1;exitDx=0;exitDy=0;entryX=0.5;entryY=0;entryDx=0;entryDy=0;fontSize=12;" parent="WIyWlLk6GJQsqaUBKTNV-1" source="CeiemYDGyUlbSWjwOKQ2-51" target="CeiemYDGyUlbSWjwOKQ2-64" edge="1">
          <mxGeometry relative="1" as="geometry">
            <mxPoint x="-940" y="127.49999999999977" as="sourcePoint" />
            <mxPoint x="-980" y="130" as="targetPoint" />
          </mxGeometry>
        </mxCell>
        <mxCell id="CeiemYDGyUlbSWjwOKQ2-51" value="Creazione token" style="rounded=1;whiteSpace=wrap;html=1;fontSize=12;" parent="WIyWlLk6GJQsqaUBKTNV-1" vertex="1">
          <mxGeometry x="-1040" y="20" width="120" height="60" as="geometry" />
        </mxCell>
        <mxCell id="CeiemYDGyUlbSWjwOKQ2-56" value="Credenziali" style="shape=parallelogram;perimeter=parallelogramPerimeter;whiteSpace=wrap;html=1;fixedSize=1;fontSize=12;" parent="WIyWlLk6GJQsqaUBKTNV-1" vertex="1">
          <mxGeometry x="-1220" y="-207.5" width="120" height="60" as="geometry" />
        </mxCell>
        <mxCell id="CeiemYDGyUlbSWjwOKQ2-59" value="No" style="edgeStyle=orthogonalEdgeStyle;rounded=0;orthogonalLoop=1;jettySize=auto;html=1;exitX=0;exitY=0.5;exitDx=0;exitDy=0;fontSize=12;entryX=0.5;entryY=0;entryDx=0;entryDy=0;" parent="WIyWlLk6GJQsqaUBKTNV-1" source="CeiemYDGyUlbSWjwOKQ2-58" target="CeiemYDGyUlbSWjwOKQ2-61" edge="1">
          <mxGeometry relative="1" as="geometry">
            <mxPoint x="-1350" y="10" as="targetPoint" />
          </mxGeometry>
        </mxCell>
        <mxCell id="CeiemYDGyUlbSWjwOKQ2-58" value="Credenziali valide" style="rhombus;whiteSpace=wrap;html=1;fontSize=12;" parent="WIyWlLk6GJQsqaUBKTNV-1" vertex="1">
          <mxGeometry x="-1215" y="-105" width="110" height="105" as="geometry" />
        </mxCell>
        <mxCell id="CeiemYDGyUlbSWjwOKQ2-61" value="Registrazione" style="ellipse;whiteSpace=wrap;html=1;aspect=fixed;fontSize=12;" parent="WIyWlLk6GJQsqaUBKTNV-1" vertex="1">
          <mxGeometry x="-1390" width="80" height="80" as="geometry" />
        </mxCell>
        <mxCell id="CeiemYDGyUlbSWjwOKQ2-64" value="Invio token sessione all&#39;utente" style="ellipse;whiteSpace=wrap;html=1;aspect=fixed;fontSize=12;" parent="WIyWlLk6GJQsqaUBKTNV-1" vertex="1">
          <mxGeometry x="-1020" y="130" width="80" height="80" as="geometry" />
        </mxCell>
        <mxCell id="dKufIB2NEosUNNGaxdtm-0" value="&lt;b&gt;&lt;font style=&quot;font-size: 16px;&quot;&gt;Associazione a progetti per utenti già iscritti&lt;/font&gt;&lt;/b&gt;" style="text;html=1;strokeColor=none;fillColor=none;align=center;verticalAlign=middle;whiteSpace=wrap;rounded=0;" parent="WIyWlLk6GJQsqaUBKTNV-1" vertex="1">
          <mxGeometry x="686.5" y="650" width="341" height="30" as="geometry" />
        </mxCell>
        <mxCell id="dKufIB2NEosUNNGaxdtm-7" style="edgeStyle=orthogonalEdgeStyle;rounded=0;orthogonalLoop=1;jettySize=auto;html=1;entryX=0.5;entryY=0;entryDx=0;entryDy=0;fontSize=12;" parent="WIyWlLk6GJQsqaUBKTNV-1" source="dKufIB2NEosUNNGaxdtm-1" target="dKufIB2NEosUNNGaxdtm-2" edge="1">
          <mxGeometry relative="1" as="geometry" />
        </mxCell>
        <mxCell id="dKufIB2NEosUNNGaxdtm-1" value="&lt;font style=&quot;font-size: 15px;&quot;&gt;Accesso pagina Surveys&lt;/font&gt;" style="ellipse;whiteSpace=wrap;html=1;aspect=fixed;fontSize=16;" parent="WIyWlLk6GJQsqaUBKTNV-1" vertex="1">
          <mxGeometry x="792.5" y="700" width="90" height="90" as="geometry" />
        </mxCell>
        <mxCell id="dKufIB2NEosUNNGaxdtm-4" value="Si" style="edgeStyle=orthogonalEdgeStyle;rounded=0;orthogonalLoop=1;jettySize=auto;html=1;entryX=0.5;entryY=0;entryDx=0;entryDy=0;fontSize=12;" parent="WIyWlLk6GJQsqaUBKTNV-1" source="dKufIB2NEosUNNGaxdtm-2" target="dKufIB2NEosUNNGaxdtm-3" edge="1">
          <mxGeometry relative="1" as="geometry" />
        </mxCell>
        <mxCell id="dKufIB2NEosUNNGaxdtm-6" value="No" style="edgeStyle=orthogonalEdgeStyle;rounded=0;orthogonalLoop=1;jettySize=auto;html=1;exitX=0;exitY=0.5;exitDx=0;exitDy=0;entryX=0.5;entryY=0;entryDx=0;entryDy=0;fontSize=12;" parent="WIyWlLk6GJQsqaUBKTNV-1" source="dKufIB2NEosUNNGaxdtm-2" target="dKufIB2NEosUNNGaxdtm-5" edge="1">
          <mxGeometry relative="1" as="geometry" />
        </mxCell>
        <mxCell id="dKufIB2NEosUNNGaxdtm-2" value="Utente è associato ad almeno un pregoetto" style="rhombus;whiteSpace=wrap;html=1;fontSize=12;" parent="WIyWlLk6GJQsqaUBKTNV-1" vertex="1">
          <mxGeometry x="766.5" y="890" width="141" height="130" as="geometry" />
        </mxCell>
        <mxCell id="dKufIB2NEosUNNGaxdtm-3" value="VIsualizzazione questionari associati al progetto" style="ellipse;whiteSpace=wrap;html=1;aspect=fixed;fontSize=12;" parent="WIyWlLk6GJQsqaUBKTNV-1" vertex="1">
          <mxGeometry x="992.5" y="1070" width="110" height="110" as="geometry" />
        </mxCell>
        <mxCell id="dKufIB2NEosUNNGaxdtm-5" value="Redirect Onboarding page" style="ellipse;whiteSpace=wrap;html=1;aspect=fixed;fontSize=12;" parent="WIyWlLk6GJQsqaUBKTNV-1" vertex="1">
          <mxGeometry x="607.5" y="1070" width="100" height="100" as="geometry" />
        </mxCell>
        <mxCell id="ACG_DsYqHiAKfRYJmFHR-4" style="edgeStyle=orthogonalEdgeStyle;rounded=0;orthogonalLoop=1;jettySize=auto;html=1;exitX=0.5;exitY=1;exitDx=0;exitDy=0;entryX=0.5;entryY=0;entryDx=0;entryDy=0;" parent="WIyWlLk6GJQsqaUBKTNV-1" source="ACG_DsYqHiAKfRYJmFHR-3" target="mc2_c9GGt54Fjs0nvVG7-7" edge="1">
          <mxGeometry relative="1" as="geometry" />
        </mxCell>
        <mxCell id="ACG_DsYqHiAKfRYJmFHR-3" value="Selezione progetto" style="rounded=1;whiteSpace=wrap;html=1;" parent="WIyWlLk6GJQsqaUBKTNV-1" vertex="1">
          <mxGeometry x="784" y="-125" width="120" height="60" as="geometry" />
        </mxCell>
        <mxCell id="ToMslZOrTW9pG5beW0yi-0" value="Salvataggio&amp;nbsp; dati utente" style="shape=cylinder3;whiteSpace=wrap;html=1;boundedLbl=1;backgroundOutline=1;size=15;fontSize=10;" vertex="1" parent="WIyWlLk6GJQsqaUBKTNV-1">
          <mxGeometry x="992.5" y="375" width="86" height="110" as="geometry" />
        </mxCell>
        <mxCell id="ToMslZOrTW9pG5beW0yi-3" style="edgeStyle=orthogonalEdgeStyle;rounded=0;orthogonalLoop=1;jettySize=auto;html=1;exitX=0.5;exitY=1;exitDx=0;exitDy=0;entryX=0.5;entryY=0;entryDx=0;entryDy=0;fontSize=10;" edge="1" parent="WIyWlLk6GJQsqaUBKTNV-1" source="ToMslZOrTW9pG5beW0yi-1" target="ToMslZOrTW9pG5beW0yi-2">
          <mxGeometry relative="1" as="geometry" />
        </mxCell>
        <mxCell id="ToMslZOrTW9pG5beW0yi-1" value="Login" style="ellipse;whiteSpace=wrap;html=1;aspect=fixed;fontSize=10;" vertex="1" parent="WIyWlLk6GJQsqaUBKTNV-1">
          <mxGeometry x="2156" y="-310" width="80" height="80" as="geometry" />
        </mxCell>
        <mxCell id="ToMslZOrTW9pG5beW0yi-5" style="edgeStyle=orthogonalEdgeStyle;rounded=0;orthogonalLoop=1;jettySize=auto;html=1;exitX=0;exitY=0.5;exitDx=0;exitDy=0;entryX=0.5;entryY=0;entryDx=0;entryDy=0;fontSize=10;" edge="1" parent="WIyWlLk6GJQsqaUBKTNV-1" source="ToMslZOrTW9pG5beW0yi-2" target="ToMslZOrTW9pG5beW0yi-4">
          <mxGeometry relative="1" as="geometry" />
        </mxCell>
        <mxCell id="ToMslZOrTW9pG5beW0yi-9" style="edgeStyle=orthogonalEdgeStyle;rounded=0;orthogonalLoop=1;jettySize=auto;html=1;exitX=1;exitY=0.5;exitDx=0;exitDy=0;entryX=0.5;entryY=0;entryDx=0;entryDy=0;fontSize=10;" edge="1" parent="WIyWlLk6GJQsqaUBKTNV-1" source="ToMslZOrTW9pG5beW0yi-2" target="ToMslZOrTW9pG5beW0yi-6">
          <mxGeometry relative="1" as="geometry" />
        </mxCell>
        <mxCell id="ToMslZOrTW9pG5beW0yi-2" value="Validato" style="rhombus;whiteSpace=wrap;html=1;fontSize=10;" vertex="1" parent="WIyWlLk6GJQsqaUBKTNV-1">
          <mxGeometry x="2156" y="-190" width="80" height="80" as="geometry" />
        </mxCell>
        <mxCell id="ToMslZOrTW9pG5beW0yi-4" value="Errore" style="ellipse;whiteSpace=wrap;html=1;aspect=fixed;fontSize=10;" vertex="1" parent="WIyWlLk6GJQsqaUBKTNV-1">
          <mxGeometry x="2028" y="-110" width="80" height="80" as="geometry" />
        </mxCell>
        <mxCell id="ToMslZOrTW9pG5beW0yi-10" style="edgeStyle=orthogonalEdgeStyle;rounded=0;orthogonalLoop=1;jettySize=auto;html=1;exitX=0.5;exitY=1;exitDx=0;exitDy=0;entryX=0.5;entryY=0;entryDx=0;entryDy=0;fontSize=10;" edge="1" parent="WIyWlLk6GJQsqaUBKTNV-1" source="ToMslZOrTW9pG5beW0yi-6" target="ToMslZOrTW9pG5beW0yi-7">
          <mxGeometry relative="1" as="geometry" />
        </mxCell>
        <mxCell id="ToMslZOrTW9pG5beW0yi-6" value="Landing page" style="rounded=1;whiteSpace=wrap;html=1;fontSize=10;" vertex="1" parent="WIyWlLk6GJQsqaUBKTNV-1">
          <mxGeometry x="2265" y="-100" width="120" height="60" as="geometry" />
        </mxCell>
        <mxCell id="ToMslZOrTW9pG5beW0yi-14" style="edgeStyle=orthogonalEdgeStyle;rounded=0;orthogonalLoop=1;jettySize=auto;html=1;exitX=0.5;exitY=1;exitDx=0;exitDy=0;entryX=0.5;entryY=0;entryDx=0;entryDy=0;fontSize=10;" edge="1" parent="WIyWlLk6GJQsqaUBKTNV-1" source="ToMslZOrTW9pG5beW0yi-7" target="mc2_c9GGt54Fjs0nvVG7-38">
          <mxGeometry relative="1" as="geometry" />
        </mxCell>
        <mxCell id="ToMslZOrTW9pG5beW0yi-7" value="Surveys" style="rounded=1;whiteSpace=wrap;html=1;fontSize=10;" vertex="1" parent="WIyWlLk6GJQsqaUBKTNV-1">
          <mxGeometry x="2265" y="10" width="120" height="60" as="geometry" />
        </mxCell>
        <mxCell id="ToMslZOrTW9pG5beW0yi-8" value="&lt;font style=&quot;font-size: 12px;&quot;&gt;Salva risposte&lt;/font&gt;" style="shape=cylinder3;whiteSpace=wrap;html=1;boundedLbl=1;backgroundOutline=1;size=15;fontSize=10;" vertex="1" parent="WIyWlLk6GJQsqaUBKTNV-1">
          <mxGeometry x="2430" y="210" width="70" height="90" as="geometry" />
        </mxCell>
      </root>
    </mxGraphModel>
  </diagram>
</mxfile>
